<svg width="16" height="16" viewBox="0 0 16 16" fill="none" xmlns="http://www.w3.org/2000/svg">
<path d="M2.72314 15.6602C0.988281 15.6602 0.116699 14.8052 0.116699 13.0869V2.95166C0.116699 1.2334 0.988281 0.378418 2.72314 0.378418H12.792C14.5352 0.378418 15.3984 1.2417 15.3984 2.95166V13.0869C15.3984 14.7969 14.5352 15.6602 12.792 15.6602H2.72314ZM10.4429 10.1318C10.8164 10.1318 11.0737 9.84131 11.0737 9.44287V5.40869C11.0737 4.90234 10.7915 4.70312 10.3516 4.70312H6.30078C5.89404 4.70312 5.63672 4.95215 5.63672 5.33398C5.63672 5.70752 5.90234 5.95654 6.31738 5.95654H7.86133L9.13135 5.82373L7.79492 7.06885L4.64893 10.2065C4.52441 10.3311 4.44971 10.5054 4.44971 10.6714C4.44971 11.0615 4.69873 11.3105 5.07227 11.3105C5.27979 11.3105 5.4458 11.2358 5.57031 11.1113L8.69971 7.97363L9.93652 6.65381L9.81201 7.99023V9.45947C9.81201 9.86621 10.061 10.1318 10.4429 10.1318Z" fill="#8E8E8E"/>
</svg>
