<svg width="16" height="22" viewBox="0 0 16 22" fill="none" xmlns="http://www.w3.org/2000/svg">
<path d="M4.40527 10.1162C4.18848 10.1162 4.00098 10.0371 3.84277 9.87891C3.68457 9.71484 3.60547 9.52734 3.60547 9.31641C3.60547 9.09375 3.68457 8.90625 3.84277 8.75391C4.00098 8.5957 4.18848 8.5166 4.40527 8.5166C4.62793 8.5166 4.81543 8.59277 4.96777 8.74512C5.12598 8.89746 5.20508 9.08789 5.20508 9.31641C5.20508 9.5332 5.12598 9.7207 4.96777 9.87891C4.81543 10.0371 4.62793 10.1162 4.40527 10.1162ZM4.40527 13.2188C4.18262 13.2188 3.99219 13.1426 3.83398 12.9902C3.68164 12.832 3.60547 12.6416 3.60547 12.4189C3.60547 12.2021 3.68164 12.0176 3.83398 11.8652C3.99219 11.707 4.18262 11.6279 4.40527 11.6279C4.62207 11.6279 4.80957 11.7041 4.96777 11.8564C5.12598 12.0088 5.20508 12.1963 5.20508 12.4189C5.20508 12.6416 5.12598 12.832 4.96777 12.9902C4.81543 13.1426 4.62793 13.2188 4.40527 13.2188ZM4.40527 16.5059C4.18848 16.5059 4.00098 16.4268 3.84277 16.2686C3.68457 16.1045 3.60547 15.917 3.60547 15.7061C3.60547 15.4834 3.68457 15.2959 3.84277 15.1436C4.00098 14.9854 4.18848 14.9062 4.40527 14.9062C4.62793 14.9062 4.81543 14.9824 4.96777 15.1348C5.12598 15.2871 5.20508 15.4775 5.20508 15.7061C5.20508 15.9229 5.12598 16.1104 4.96777 16.2686C4.81543 16.4268 4.62793 16.5059 4.40527 16.5059ZM6.81348 9.93164C6.64355 9.93164 6.49707 9.87012 6.37402 9.74707C6.25098 9.62402 6.18945 9.48047 6.18945 9.31641C6.18945 9.14062 6.25098 8.99121 6.37402 8.86816C6.49707 8.74512 6.64355 8.68359 6.81348 8.68359H11.7793C11.9492 8.68359 12.0928 8.74512 12.21 8.86816C12.333 8.99121 12.3945 9.14062 12.3945 9.31641C12.3945 9.48047 12.333 9.62402 12.21 9.74707C12.0928 9.87012 11.9492 9.93164 11.7793 9.93164H6.81348ZM6.81348 13.043C6.6377 13.043 6.48828 12.9814 6.36523 12.8584C6.24805 12.7354 6.18945 12.5889 6.18945 12.4189C6.18945 12.249 6.24805 12.1055 6.36523 11.9883C6.48828 11.8711 6.6377 11.8125 6.81348 11.8125H11.7793C11.9492 11.8125 12.0928 11.8711 12.21 11.9883C12.333 12.1055 12.3945 12.249 12.3945 12.4189C12.3945 12.5889 12.3359 12.7354 12.2188 12.8584C12.1016 12.9814 11.9551 13.043 11.7793 13.043H6.81348ZM6.81348 16.3213C6.64355 16.3213 6.49707 16.2598 6.37402 16.1367C6.25098 16.0137 6.18945 15.8701 6.18945 15.7061C6.18945 15.5303 6.24805 15.3838 6.36523 15.2666C6.48828 15.1494 6.6377 15.0908 6.81348 15.0908H11.7793C11.9492 15.0908 12.0928 15.1494 12.21 15.2666C12.333 15.3838 12.3945 15.5303 12.3945 15.7061C12.3945 15.8701 12.333 16.0137 12.21 16.1367C12.0928 16.2598 11.9492 16.3213 11.7793 16.3213H6.81348ZM3.33301 21.876C2.40137 21.876 1.69238 21.6299 1.20605 21.1377C0.719727 20.6455 0.476562 19.9277 0.476562 18.9844V5.68652C0.476562 4.75488 0.710938 4.04004 1.17969 3.54199C1.6543 3.03809 2.3457 2.78613 3.25391 2.78613H3.45605C3.43848 2.83887 3.42676 2.89746 3.4209 2.96191C3.41504 3.02051 3.41211 3.08203 3.41211 3.14648V3.96387C3.41211 4.16895 3.43262 4.33887 3.47363 4.47363H3.29785C2.92285 4.47363 2.63867 4.58496 2.44531 4.80762C2.25781 5.03027 2.16406 5.3291 2.16406 5.7041V18.9668C2.16406 19.3594 2.26953 19.6611 2.48047 19.8721C2.69141 20.083 3.00195 20.1885 3.41211 20.1885H12.5879C12.998 20.1885 13.3086 20.083 13.5195 19.8721C13.7305 19.6611 13.8359 19.3594 13.8359 18.9668V5.7041C13.8359 5.3291 13.7393 5.03027 13.5459 4.80762C13.3584 4.58496 13.0801 4.47363 12.7109 4.47363H12.5176C12.5645 4.33887 12.5879 4.16895 12.5879 3.96387V3.14648C12.5879 3.08203 12.585 3.02051 12.5791 2.96191C12.5732 2.89746 12.5615 2.83887 12.5439 2.78613H12.7461C13.6543 2.78613 14.3428 3.03809 14.8115 3.54199C15.2861 4.04004 15.5234 4.75488 15.5234 5.68652V18.9844C15.5234 19.9277 15.2803 20.6455 14.7939 21.1377C14.3076 21.6299 13.5957 21.876 12.6582 21.876H3.33301ZM5.29297 4.97461C5.02344 4.97461 4.8125 4.89551 4.66016 4.7373C4.51367 4.5791 4.44043 4.35645 4.44043 4.06934V3.14648C4.44043 2.85937 4.51367 2.63672 4.66016 2.47852C4.8125 2.32031 5.02344 2.24121 5.29297 2.24121H6.04004C6.06934 1.73145 6.27148 1.29785 6.64648 0.94043C7.02148 0.577148 7.47266 0.395508 8 0.395508C8.52148 0.395508 8.96973 0.577148 9.34473 0.94043C9.72559 1.29785 9.93066 1.73145 9.95996 2.24121H10.707C10.9766 2.24121 11.1846 2.32031 11.3311 2.47852C11.4834 2.63672 11.5596 2.85937 11.5596 3.14648V4.06934C11.5596 4.35645 11.4834 4.5791 11.3311 4.7373C11.1846 4.89551 10.9766 4.97461 10.707 4.97461H5.29297ZM8 3.09375C8.2168 3.09375 8.39844 3.01758 8.54492 2.86523C8.69727 2.70703 8.77344 2.52539 8.77344 2.32031C8.77344 2.10352 8.69727 1.91895 8.54492 1.7666C8.39844 1.61426 8.2168 1.53809 8 1.53809C7.7832 1.53809 7.59863 1.61426 7.44629 1.7666C7.2998 1.91895 7.22656 2.10352 7.22656 2.32031C7.22656 2.52539 7.2998 2.70703 7.44629 2.86523C7.59863 3.01758 7.7832 3.09375 8 3.09375Z" fill="#999999"/>
</svg>
