<svg width="234" height="239" viewBox="0 0 234 239" fill="none" xmlns="http://www.w3.org/2000/svg">
<path d="M14.8787 149.609C10.9194 150.899 6.63825 148.74 5.60773 144.705C0.310265 123.965 0.844229 102.109 7.22635 81.5733C13.6085 61.0378 25.5569 42.7294 41.6774 28.6451C44.8133 25.9053 49.5643 26.553 52.0947 29.8602C54.625 33.1675 53.9736 37.8795 50.8644 40.6497C37.2112 52.8142 27.0819 68.4964 21.6269 86.0488C16.1719 103.601 15.6278 122.262 19.9808 140.023C20.9721 144.067 18.8379 148.319 14.8787 149.609Z" fill="#72DC4D"/>
<path d="M120.655 7.5725C120.757 3.40952 124.219 0.0919661 128.366 0.464087C143.404 1.81325 158.058 6.08762 171.498 13.0728C187.171 21.2191 200.776 32.8371 211.277 47.0407C221.778 61.2444 228.896 77.6585 232.089 95.0313C234.827 109.928 234.617 125.192 231.498 139.964C230.637 144.038 226.451 146.375 222.441 145.252C218.431 144.129 216.12 139.971 216.941 135.889C219.464 123.336 219.58 110.395 217.257 97.7572C214.48 82.6429 208.287 68.3626 199.151 56.0054C190.015 43.6482 178.178 33.5406 164.543 26.4533C153.142 20.5274 140.735 16.844 127.994 15.5761C123.851 15.1637 120.553 11.7355 120.655 7.5725Z" fill="#3872FF"/>
<path d="M225.978 126.218C230.123 126.611 233.191 130.296 232.53 134.407C230.261 148.526 225.397 162.126 218.162 174.511C209.657 189.07 198.081 201.6 184.239 211.228C170.397 220.856 154.623 227.351 138.015 230.26C123.887 232.735 109.444 232.565 95.4174 229.781C91.3328 228.97 88.9453 224.812 90.0196 220.789C91.0938 216.765 95.2233 214.404 99.3155 215.175C111.216 217.417 123.444 217.503 135.413 215.406C149.862 212.875 163.586 207.225 175.628 198.848C187.67 190.472 197.742 179.571 205.141 166.905C211.27 156.413 215.443 144.919 217.481 132.981C218.182 128.876 221.832 125.826 225.978 126.218Z" fill="#A377FF"/>
<path d="M41.615 39.0006C38.6823 36.0443 38.686 31.2496 41.8266 28.5151C53.9564 17.9535 68.1725 10.011 83.5842 5.22295C98.996 0.434892 115.21 -1.07651 131.189 0.752229C135.326 1.22571 138.047 5.17422 137.305 9.27195C136.564 13.3697 132.642 16.061 128.5 15.6277C114.914 14.2064 101.153 15.5556 88.0583 19.624C74.9632 23.6923 62.8603 30.3783 52.4714 39.2481C49.3044 41.952 44.5477 41.957 41.615 39.0006Z" fill="#FE8C03"/>
<g filter="url(#filter0_d_374_23902)">
<path d="M105.095 223.689C104.599 227.824 100.839 230.799 96.7451 230.036C74.2294 225.84 53.3978 215.057 36.935 198.973C20.4723 182.889 9.20778 162.313 4.48899 139.901C3.63104 135.826 6.51779 131.998 10.6398 131.406C14.7618 130.815 18.5546 133.686 19.4521 137.752C23.6735 156.879 33.3859 174.423 47.4735 188.186C61.5611 201.95 79.326 211.252 98.5453 215.027C102.631 215.83 105.59 219.555 105.095 223.689Z" fill="#44D2FF"/>
</g>
<path d="M27.5494 56.148C24.0766 53.85 23.1049 49.1549 25.6236 45.8387C32.3356 37.0015 40.2814 29.1728 49.2172 22.5927C52.5704 20.1235 57.2506 21.1647 59.4968 24.6712C61.743 28.1777 60.7015 32.819 57.3725 35.3207C50.1792 40.7262 43.7409 47.0697 38.2292 54.1819C35.6785 57.4735 31.0222 58.446 27.5494 56.148Z" fill="#72DC4D"/>
<path d="M223.977 92.9258C228.046 92.0399 232.088 94.6183 232.708 98.7362C234.925 113.462 234.284 128.479 230.823 142.963C229.855 147.013 225.608 149.238 221.629 148.009C217.65 146.78 215.451 142.563 216.379 138.503C219.121 126.516 219.649 114.128 217.937 101.951C217.358 97.8269 219.908 93.8117 223.977 92.9258Z" fill="#3872FF"/>
<path d="M155.838 217.646C157.29 221.548 155.31 225.915 151.321 227.111C130.338 233.404 107.996 233.626 86.8919 227.751C82.8802 226.634 80.8134 222.308 82.1883 218.377C83.5633 214.447 87.8595 212.404 91.8819 213.482C109.647 218.242 128.382 218.056 146.049 212.944C150.049 211.787 154.385 213.743 155.838 217.646Z" fill="#A377FF"/>
<path d="M64.9785 108V98.8403H66.6162L69.5361 106.146H69.6376L72.5576 98.8403H74.1953V108H72.9003V101.278H72.8051L70.1137 108H69.06L66.3749 101.278H66.2734V108H64.9785ZM78.8463 108.133C76.8214 108.133 75.5836 106.781 75.5836 104.56V104.547C75.5836 102.332 76.8278 100.973 78.8463 100.973C80.8585 100.973 82.1027 102.325 82.1027 104.547V104.56C82.1027 106.781 80.8649 108.133 78.8463 108.133ZM78.8463 106.984C80.027 106.984 80.6999 106.083 80.6999 104.56V104.547C80.6999 103.017 80.027 102.122 78.8463 102.122C77.6593 102.122 76.9928 103.017 76.9928 104.547V104.56C76.9928 106.089 77.6593 106.984 78.8463 106.984ZM85.8461 108.133C84.183 108.133 83.1293 107.353 82.996 106.197V106.191H84.3734L84.3797 106.197C84.5511 106.718 85.0526 107.067 85.8714 107.067C86.722 107.067 87.3124 106.68 87.3124 106.115V106.102C87.3124 105.67 86.9886 105.378 86.1888 105.194L85.0907 104.94C83.7894 104.642 83.1864 104.052 83.1864 103.042V103.036C83.1864 101.836 84.3036 100.973 85.8651 100.973C87.4393 100.973 88.4486 101.76 88.5692 102.884V102.89H87.2552V102.877C87.1219 102.395 86.6332 102.033 85.8587 102.033C85.1034 102.033 84.5575 102.408 84.5575 102.96V102.973C84.5575 103.404 84.8749 103.671 85.6493 103.855L86.7411 104.103C88.0677 104.414 88.7025 104.979 88.7025 105.975V105.988C88.7025 107.264 87.4837 108.133 85.8461 108.133ZM92.4903 108.044C90.9732 108.044 90.3511 107.511 90.3511 106.185V102.192H89.272V101.106H90.3511V99.3672H91.754V101.106H93.233V102.192H91.754V105.854C91.754 106.597 92.0333 106.902 92.7125 106.902C92.9219 106.902 93.0425 106.896 93.233 106.876V107.975C93.0108 108.013 92.7569 108.044 92.4903 108.044ZM97.5776 110.298V101.106H98.9551V102.192H99.0566C99.4565 101.437 100.212 100.986 101.177 100.986C102.916 100.986 104.033 102.376 104.033 104.547V104.56C104.033 106.743 102.929 108.114 101.177 108.114C100.231 108.114 99.4248 107.651 99.0566 106.908H98.9551V110.298H97.5776ZM100.79 106.94C101.938 106.94 102.63 106.039 102.63 104.56V104.547C102.63 103.062 101.938 102.167 100.79 102.167C99.6406 102.167 98.9297 103.074 98.9297 104.547V104.56C98.9297 106.032 99.6406 106.94 100.79 106.94ZM105.345 108V98.4023H106.723V108H105.345ZM110.257 108.114C108.943 108.114 107.972 107.314 107.972 106.064V106.051C107.972 104.82 108.898 104.103 110.542 104.001L112.409 103.893V103.284C112.409 102.528 111.933 102.109 110.999 102.109C110.238 102.109 109.736 102.389 109.571 102.877L109.565 102.903H108.238L108.245 102.858C108.41 101.729 109.495 100.973 111.063 100.973C112.796 100.973 113.773 101.836 113.773 103.284V108H112.409V107.022H112.301C111.894 107.721 111.171 108.114 110.257 108.114ZM109.343 106.007C109.343 106.642 109.882 107.016 110.625 107.016C111.653 107.016 112.409 106.343 112.409 105.455V104.864L110.726 104.972C109.774 105.029 109.343 105.372 109.343 105.994V106.007ZM115.752 110.425C115.581 110.425 115.378 110.412 115.2 110.393V109.308C115.333 109.327 115.505 109.333 115.663 109.333C116.304 109.333 116.692 109.06 116.895 108.362L116.996 108.006L114.495 101.106H115.981L117.707 106.616H117.828L119.548 101.106H120.995L118.431 108.267C117.847 109.911 117.149 110.425 115.752 110.425ZM124.612 108.133C122.593 108.133 121.374 106.756 121.374 104.572V104.566C121.374 102.414 122.618 100.973 124.542 100.973C126.465 100.973 127.646 102.363 127.646 104.433V104.915H122.758C122.784 106.235 123.507 107.003 124.643 107.003C125.526 107.003 126.053 106.565 126.218 106.21L126.243 106.159L127.57 106.153L127.557 106.21C127.328 107.118 126.376 108.133 124.612 108.133ZM124.548 102.103C123.609 102.103 122.898 102.744 122.777 103.931H126.281C126.173 102.7 125.481 102.103 124.548 102.103ZM131.389 108.114C129.656 108.114 128.533 106.724 128.533 104.56V104.547C128.533 102.363 129.637 100.986 131.389 100.986C132.335 100.986 133.141 101.456 133.509 102.198H133.617V98.4023H134.988V108H133.617V106.915H133.509C133.109 107.67 132.354 108.114 131.389 108.114ZM131.783 106.94C132.932 106.94 133.636 106.032 133.636 104.56V104.547C133.636 103.074 132.925 102.167 131.783 102.167C130.627 102.167 129.936 103.068 129.936 104.547V104.56C129.936 106.039 130.627 106.94 131.783 106.94ZM142.691 110.431C140.939 110.431 139.86 109.663 139.695 108.514L139.707 108.501H141.098L141.104 108.514C141.218 108.99 141.777 109.327 142.71 109.327C143.846 109.327 144.519 108.793 144.519 107.854V106.496H144.417C143.998 107.245 143.237 107.664 142.291 107.664C140.52 107.664 139.428 106.299 139.428 104.356V104.344C139.428 102.376 140.526 100.986 142.316 100.986C143.281 100.986 144.03 101.462 144.43 102.236H144.513V101.106H145.884V107.86C145.884 109.428 144.646 110.431 142.691 110.431ZM142.672 106.527C143.84 106.527 144.544 105.639 144.544 104.35V104.337C144.544 103.055 143.833 102.154 142.672 102.154C141.497 102.154 140.837 103.055 140.837 104.337V104.35C140.837 105.632 141.497 106.527 142.672 106.527ZM149.348 108.114C148.034 108.114 147.063 107.314 147.063 106.064V106.051C147.063 104.82 147.989 104.103 149.633 104.001L151.5 103.893V103.284C151.5 102.528 151.024 102.109 150.09 102.109C149.329 102.109 148.827 102.389 148.662 102.877L148.656 102.903H147.329L147.336 102.858C147.501 101.729 148.586 100.973 150.154 100.973C151.887 100.973 152.864 101.836 152.864 103.284V108H151.5V107.022H151.392C150.985 107.721 150.262 108.114 149.348 108.114ZM148.434 106.007C148.434 106.642 148.973 107.016 149.716 107.016C150.744 107.016 151.5 106.343 151.5 105.455V104.864L149.818 104.972C148.865 105.029 148.434 105.372 148.434 105.994V106.007ZM154.399 108V101.106H155.776V102.167H155.878C156.182 101.411 156.855 100.973 157.757 100.973C158.696 100.973 159.363 101.462 159.667 102.205H159.775C160.124 101.462 160.918 100.973 161.876 100.973C163.266 100.973 164.079 101.811 164.079 103.246V108H162.708V103.576C162.708 102.624 162.276 102.154 161.375 102.154C160.499 102.154 159.921 102.808 159.921 103.639V108H158.55V103.436C158.55 102.649 158.036 102.154 157.223 102.154C156.392 102.154 155.776 102.865 155.776 103.766V108H154.399ZM168.489 108.133C166.47 108.133 165.252 106.756 165.252 104.572V104.566C165.252 102.414 166.496 100.973 168.419 100.973C170.342 100.973 171.523 102.363 171.523 104.433V104.915H166.635C166.661 106.235 167.384 107.003 168.521 107.003C169.403 107.003 169.93 106.565 170.095 106.21L170.12 106.159L171.447 106.153L171.434 106.21C171.206 107.118 170.253 108.133 168.489 108.133ZM168.425 102.103C167.486 102.103 166.775 102.744 166.654 103.931H170.158C170.05 102.7 169.358 102.103 168.425 102.103Z" fill="#898989"/>
<path d="M52.2441 134V122.027H47.9082V119.908H59.1094V122.027H54.7637V134H52.2441ZM64.088 134.215C60.9141 134.215 58.9903 132.086 58.9903 128.688V128.678C58.9903 125.318 60.9337 123.121 63.9708 123.121C67.0079 123.121 68.8829 125.25 68.8829 128.473V129.273H61.422C61.4513 131.188 62.4864 132.301 64.1368 132.301C65.4552 132.301 66.2071 131.637 66.4415 131.148L66.4708 131.08H68.7852L68.7559 131.168C68.4141 132.545 66.9884 134.215 64.088 134.215ZM64.0001 125.025C62.6427 125.025 61.627 125.943 61.4415 127.643H66.5098C66.3438 125.895 65.3575 125.025 64.0001 125.025ZM69.9943 134L73.4513 128.707L69.965 123.326H72.7775L74.8966 127.027H75.0627L77.172 123.326H79.838L76.3908 128.6L79.8771 134H77.1427L74.9552 130.289H74.7892L72.6115 134H69.9943ZM84.7483 134.176C82.717 134.176 81.2424 132.926 81.2424 130.982V130.963C81.2424 129.059 82.6975 127.945 85.2952 127.789L88.0393 127.623V126.705C88.0393 125.641 87.3459 125.055 86.0373 125.055C84.9241 125.055 84.2014 125.455 83.9573 126.158L83.9475 126.197H81.6526L81.6623 126.109C81.8967 124.312 83.6155 123.121 86.1545 123.121C88.8987 123.121 90.4416 124.449 90.4416 126.705V134H88.0393V132.535H87.8733C87.2873 133.57 86.1545 134.176 84.7483 134.176ZM83.6448 130.865C83.6448 131.773 84.4162 132.311 85.4905 132.311C86.9553 132.311 88.0393 131.354 88.0393 130.084V129.225L85.637 129.381C84.2795 129.469 83.6448 129.967 83.6448 130.846V130.865ZM97.3148 134.215C94.5999 134.215 92.9593 132.965 92.7542 131.158V131.139H95.1663L95.1761 131.158C95.43 131.9 96.1429 132.418 97.3538 132.418C98.5648 132.418 99.4046 131.871 99.4046 131.07V131.051C99.4046 130.426 98.9359 130.016 97.764 129.752L96.0355 129.361C94.0042 128.912 93.0374 127.955 93.0374 126.383V126.373C93.0374 124.449 94.7952 123.121 97.3148 123.121C99.9124 123.121 101.465 124.41 101.621 126.139V126.158H99.3363L99.3265 126.129C99.1507 125.455 98.4476 124.908 97.305 124.908C96.221 124.908 95.4398 125.436 95.4398 126.236V126.246C95.4398 126.871 95.889 127.252 97.0413 127.516L98.7698 127.896C100.86 128.365 101.846 129.254 101.846 130.807V130.826C101.846 132.857 99.9417 134.215 97.3148 134.215ZM109.723 134V119.908H112.243V125.768H119.098V119.908H121.608V134H119.098V127.887H112.243V134H109.723ZM129.37 134.215C126.167 134.215 124.233 132.125 124.233 128.668V128.648C124.233 125.221 126.196 123.121 129.37 123.121C132.553 123.121 134.506 125.211 134.506 128.648V128.668C134.506 132.125 132.563 134.215 129.37 134.215ZM129.37 132.242C131.059 132.242 132.016 130.924 132.016 128.678V128.658C132.016 126.412 131.049 125.084 129.37 125.084C127.68 125.084 126.713 126.412 126.713 128.658V128.678C126.713 130.924 127.68 132.242 129.37 132.242ZM136.965 134V119.195H139.397V134H136.965ZM146.241 134.176C143.565 134.176 141.866 132.057 141.866 128.678V128.658C141.866 125.26 143.536 123.15 146.241 123.15C147.706 123.15 148.926 123.873 149.483 125.025H149.649V119.195H152.091V134H149.649V132.33H149.483C148.897 133.492 147.745 134.176 146.241 134.176ZM147.003 132.125C148.663 132.125 149.688 130.816 149.688 128.678V128.658C149.688 126.52 148.653 125.201 147.003 125.201C145.352 125.201 144.337 126.51 144.337 128.658V128.678C144.337 130.826 145.342 132.125 147.003 132.125ZM155.194 125.777L156.044 119.908H158.554L156.864 125.777H155.194ZM164.987 134.215C161.813 134.215 159.89 132.086 159.89 128.688V128.678C159.89 125.318 161.833 123.121 164.87 123.121C167.907 123.121 169.782 125.25 169.782 128.473V129.273H162.321C162.35 131.188 163.386 132.301 165.036 132.301C166.354 132.301 167.106 131.637 167.341 131.148L167.37 131.08H169.684L169.655 131.168C169.313 132.545 167.888 134.215 164.987 134.215ZM164.899 125.025C163.542 125.025 162.526 125.943 162.341 127.643H167.409C167.243 125.895 166.257 125.025 164.899 125.025ZM172.134 134V123.326H174.565V124.986H174.731C175.19 123.795 176.265 123.121 177.661 123.121C179.106 123.121 180.161 123.863 180.62 125.045H180.786C181.304 123.883 182.534 123.121 184.019 123.121C186.167 123.121 187.456 124.439 187.456 126.656V134H185.024V127.252C185.024 125.865 184.39 125.162 183.091 125.162C181.821 125.162 181.001 126.109 181.001 127.33V134H178.569V127.076C178.569 125.895 177.837 125.162 176.645 125.162C175.444 125.162 174.565 126.178 174.565 127.506V134H172.134Z" fill="white"/>
<defs>
<filter id="filter0_d_374_23902" x="0.337891" y="131.329" width="108.811" height="106.827" filterUnits="userSpaceOnUse" color-interpolation-filters="sRGB">
<feFlood flood-opacity="0" result="BackgroundImageFix"/>
<feColorMatrix in="SourceAlpha" type="matrix" values="0 0 0 0 0 0 0 0 0 0 0 0 0 0 0 0 0 0 127 0" result="hardAlpha"/>
<feOffset dy="4"/>
<feGaussianBlur stdDeviation="2"/>
<feComposite in2="hardAlpha" operator="out"/>
<feColorMatrix type="matrix" values="0 0 0 0 0 0 0 0 0 0 0 0 0 0 0 0 0 0 0.25 0"/>
<feBlend mode="normal" in2="BackgroundImageFix" result="effect1_dropShadow_374_23902"/>
<feBlend mode="normal" in="SourceGraphic" in2="effect1_dropShadow_374_23902" result="shape"/>
</filter>
</defs>
</svg>
