<svg width="27" height="17" viewBox="0 0 27 17" fill="none" xmlns="http://www.w3.org/2000/svg">
<path d="M6.04688 6.94922C6.04688 7.20703 6.12012 7.40918 6.2666 7.55566C6.41309 7.70215 6.61816 7.77539 6.88184 7.77539H8.41113V9.26074C8.41113 9.51855 8.48145 9.72363 8.62207 9.87598C8.76855 10.0283 8.96777 10.1045 9.21973 10.1045C9.47168 10.1045 9.66797 10.0283 9.80859 9.87598C9.95508 9.72363 10.0283 9.51855 10.0283 9.26074V7.77539H11.4697C11.751 7.77539 11.9707 7.70215 12.1289 7.55566C12.2871 7.40918 12.3662 7.20703 12.3662 6.94922C12.3662 6.69727 12.2871 6.49805 12.1289 6.35156C11.9707 6.20508 11.751 6.13184 11.4697 6.13184H10.0283V4.64648C10.0283 4.38867 9.95508 4.18652 9.80859 4.04004C9.66797 3.8877 9.47168 3.81152 9.21973 3.81152C8.96777 3.81152 8.76855 3.8877 8.62207 4.04004C8.48145 4.18652 8.41113 4.38867 8.41113 4.64648V6.13184H6.88184C6.61816 6.13184 6.41309 6.20508 6.2666 6.35156C6.12012 6.49805 6.04688 6.69727 6.04688 6.94922ZM19.2129 6.87891C19.5938 6.87891 19.916 6.74707 20.1797 6.4834C20.4492 6.21973 20.584 5.89746 20.584 5.5166C20.584 5.13574 20.4492 4.81348 20.1797 4.5498C19.916 4.28027 19.5938 4.14551 19.2129 4.14551C18.8379 4.14551 18.5156 4.28027 18.2461 4.5498C17.9766 4.81348 17.8418 5.13574 17.8418 5.5166C17.8418 5.89746 17.9766 6.21973 18.2461 6.4834C18.5156 6.74707 18.8379 6.87891 19.2129 6.87891ZM16.4971 9.62109C16.8779 9.62109 17.2031 9.48926 17.4727 9.22559C17.7422 8.96191 17.877 8.63965 17.877 8.25879C17.877 7.88379 17.7422 7.56152 17.4727 7.29199C17.2031 7.02246 16.8779 6.8877 16.4971 6.8877C16.1221 6.8877 15.7998 7.02246 15.5303 7.29199C15.2607 7.56152 15.126 7.88379 15.126 8.25879C15.126 8.63965 15.2607 8.96191 15.5303 9.22559C15.7998 9.48926 16.1221 9.62109 16.4971 9.62109ZM4.06934 16.7666C3.38965 16.7666 2.79199 16.626 2.27637 16.3447C1.76074 16.0635 1.35645 15.6621 1.06348 15.1406C0.776367 14.6191 0.632812 14.001 0.632812 13.2861C0.632812 12.8291 0.679688 12.3398 0.773438 11.8184C0.873047 11.2969 1.01074 10.7461 1.18652 10.166C1.3623 9.5625 1.5791 8.90625 1.83691 8.19727C2.09473 7.48242 2.37012 6.76465 2.66309 6.04395C2.96191 5.31738 3.26074 4.6377 3.55957 4.00488C3.81152 3.47168 4.05176 3.02344 4.28027 2.66016C4.51465 2.29688 4.81055 1.99805 5.16797 1.76367C5.52539 1.5293 6.02344 1.33887 6.66211 1.19238C7.51172 0.999023 8.51074 0.84668 9.65918 0.735352C10.8076 0.618164 12.0879 0.55957 13.5 0.55957C14.9121 0.55957 16.1924 0.618164 17.3408 0.735352C18.4893 0.84668 19.4854 0.999023 20.3291 1.19238C20.9736 1.33887 21.4746 1.5293 21.832 1.76367C22.1895 1.99805 22.4824 2.29688 22.7109 2.66016C22.9395 3.02344 23.1826 3.47168 23.4404 4.00488C23.7393 4.6377 24.0352 5.31738 24.3281 6.04395C24.627 6.76465 24.9053 7.48242 25.1631 8.19727C25.4209 8.90625 25.6377 9.5625 25.8135 10.166C25.9893 10.7461 26.124 11.2969 26.2178 11.8184C26.3174 12.3398 26.3672 12.8291 26.3672 13.2861C26.3672 14.001 26.2207 14.6191 25.9277 15.1406C25.6406 15.6621 25.2363 16.0635 24.7148 16.3447C24.1992 16.626 23.6045 16.7666 22.9307 16.7666C22.2803 16.7666 21.7207 16.6465 21.252 16.4062C20.7832 16.166 20.3525 15.8174 19.96 15.3604L18.3955 13.541C18.2783 13.4062 18.1611 13.3096 18.0439 13.251C17.9268 13.1924 17.8008 13.1631 17.666 13.1631H9.33398C9.19922 13.1631 9.07324 13.1924 8.95605 13.251C8.83887 13.3096 8.72168 13.4062 8.60449 13.541L7.04004 15.3604C6.64746 15.8232 6.2168 16.1719 5.74805 16.4062C5.2793 16.6465 4.71973 16.7666 4.06934 16.7666Z" fill="#999999"/>
</svg>
