<svg width="16" height="16" viewBox="0 0 16 16" fill="none" xmlns="http://www.w3.org/2000/svg">
<path d="M2.93066 15.8428C1.09619 15.8428 0.116699 14.8799 0.116699 13.062V2.97656C0.116699 1.15869 1.09619 0.1875 2.93066 0.1875H12.958C14.8008 0.1875 15.772 1.15869 15.772 2.97656V13.062C15.772 14.8799 14.8008 15.8428 12.958 15.8428H2.93066ZM10.6836 5.59961C10.2021 5.59961 9.90332 5.93994 9.90332 6.46289V7.74951L10.0195 8.91992L8.91553 7.69141L6.02686 4.80273C5.83594 4.61182 5.62012 4.52051 5.36279 4.52051C4.87305 4.52051 4.50781 4.86084 4.50781 5.37549C4.50781 5.60791 4.61572 5.83203 4.78174 6.00635L7.69531 8.91162L8.93213 10.0239L7.81152 9.89111H6.4502C5.92725 9.89111 5.58691 10.1899 5.58691 10.6631C5.58691 11.1445 5.92725 11.4434 6.4502 11.4434H10.4595C11.0737 11.4434 11.4556 11.1196 11.4556 10.4556V6.46289C11.4556 5.94824 11.1484 5.59961 10.6836 5.59961Z" fill="#FF4646"/>
</svg>
