<svg width="21" height="20" viewBox="0 0 21 20" fill="none" xmlns="http://www.w3.org/2000/svg">
<path d="M4.59863 19.6914C4.39811 19.5365 4.27507 19.3337 4.22949 19.083C4.18848 18.8369 4.22493 18.5452 4.33887 18.208L6.15723 12.7871L1.50879 9.45117C1.22168 9.24609 1.01888 9.02962 0.900391 8.80176C0.786458 8.57389 0.770508 8.33691 0.852539 8.09082C0.930013 7.85384 1.0804 7.67611 1.30371 7.55762C1.53158 7.43913 1.82324 7.38216 2.17871 7.38672L7.88672 7.4209L9.62305 1.97266C9.73242 1.63086 9.87598 1.37109 10.0537 1.19336C10.236 1.01562 10.4548 0.926758 10.71 0.926758C10.9652 0.926758 11.1816 1.01562 11.3594 1.19336C11.5371 1.37109 11.6807 1.63086 11.79 1.97266L13.5264 7.4209L19.2275 7.38672C19.5876 7.38216 19.8792 7.43913 20.1025 7.55762C20.3258 7.67611 20.4785 7.85612 20.5605 8.09766C20.6426 8.33919 20.6266 8.57389 20.5127 8.80176C20.3988 9.02962 20.196 9.24609 19.9043 9.45117L15.2559 12.7871L17.0742 18.208C17.1882 18.5452 17.2223 18.8369 17.1768 19.083C17.1357 19.3337 17.015 19.5365 16.8145 19.6914C16.6094 19.8418 16.3792 19.8965 16.124 19.8555C15.8734 19.819 15.6022 19.6937 15.3105 19.4795L10.71 16.0957L6.0957 19.4795C5.80404 19.6937 5.53288 19.819 5.28223 19.8555C5.03158 19.8965 4.80371 19.8418 4.59863 19.6914ZM6.13672 17.5859C6.15039 17.5996 6.17546 17.5928 6.21191 17.5654L10.1836 14.5098C10.3704 14.3639 10.5436 14.291 10.7031 14.291C10.8626 14.291 11.0381 14.3639 11.2295 14.5098L15.1943 17.5654C15.2399 17.5928 15.2673 17.5996 15.2764 17.5859C15.29 17.5723 15.29 17.5449 15.2764 17.5039L13.6084 12.7803C13.5583 12.6299 13.5309 12.5 13.5264 12.3906C13.5264 12.2767 13.556 12.1742 13.6152 12.083C13.679 11.9873 13.7793 11.8939 13.916 11.8027L18.0449 8.95898C18.0859 8.93164 18.1019 8.91113 18.0928 8.89746C18.0882 8.87923 18.0632 8.87012 18.0176 8.87012L13.0068 8.97949C12.7699 8.98861 12.5876 8.95215 12.46 8.87012C12.3369 8.78353 12.2412 8.6263 12.1729 8.39844L10.7578 3.59961C10.7441 3.54948 10.7282 3.52441 10.71 3.52441C10.6872 3.52441 10.6689 3.54948 10.6553 3.59961L9.24023 8.39844C9.17188 8.6263 9.07389 8.78353 8.94629 8.87012C8.82324 8.95215 8.64323 8.98861 8.40625 8.97949L3.40234 8.87012C3.35677 8.87012 3.32943 8.87923 3.32031 8.89746C3.3112 8.91569 3.32715 8.9362 3.36816 8.95898L7.49707 11.8027C7.63379 11.8939 7.73177 11.9873 7.79102 12.083C7.85482 12.1742 7.88444 12.2767 7.87988 12.3906C7.87988 12.5 7.85254 12.6299 7.79785 12.7803L6.13672 17.5039C6.12305 17.5449 6.12305 17.5723 6.13672 17.5859Z" fill="white"/>
</svg>
