<svg width="22" height="22" viewBox="0 0 22 22" fill="none" xmlns="http://www.w3.org/2000/svg">
<path d="M11.2031 21.7578C10.0625 21.7578 8.97396 21.5807 7.9375 21.2266C6.90104 20.8776 5.94792 20.3828 5.07812 19.7422C4.21354 19.1068 3.46094 18.3542 2.82031 17.4844C2.1849 16.6146 1.6901 15.6615 1.33594 14.625C0.981771 13.5885 0.804688 12.5 0.804688 11.3594C0.804688 10.2188 0.979167 9.13021 1.32812 8.09375C1.68229 7.05729 2.17969 6.10677 2.82031 5.24219C3.46094 4.3724 4.21354 3.61719 5.07812 2.97656C5.94271 2.33594 6.89323 1.84115 7.92969 1.49219C8.96615 1.13802 10.0547 0.960938 11.1953 0.960938C12.3359 0.960938 13.4245 1.13802 14.4609 1.49219C15.5026 1.84115 16.4557 2.33594 17.3203 2.97656C18.1901 3.61719 18.9453 4.3724 19.5859 5.24219C20.2266 6.10677 20.724 7.05729 21.0781 8.09375C21.4323 9.13021 21.6094 10.2188 21.6094 11.3594C21.6094 12.5 21.4323 13.5885 21.0781 14.625C20.724 15.6615 20.2266 16.6146 19.5859 17.4844C18.9453 18.3542 18.1901 19.1068 17.3203 19.7422C16.4557 20.3828 15.5052 20.8776 14.4688 21.2266C13.4323 21.5807 12.3438 21.7578 11.2031 21.7578ZM11.2031 19.7344C12.1354 19.7344 13.0182 19.5911 13.8516 19.3047C14.6901 19.0234 15.4583 18.6276 16.1562 18.1172C16.8542 17.6068 17.4583 17.0026 17.9688 16.3047C18.4792 15.6068 18.8724 14.8411 19.1484 14.0078C19.4297 13.1693 19.5703 12.2865 19.5703 11.3594C19.5703 10.4323 19.4297 9.54948 19.1484 8.71094C18.8724 7.8724 18.4766 7.10677 17.9609 6.41406C17.4505 5.71615 16.8464 5.11198 16.1484 4.60156C15.4505 4.09115 14.6823 3.69531 13.8438 3.41406C13.0104 3.13281 12.1276 2.99219 11.1953 2.99219C10.2682 2.99219 9.38542 3.13281 8.54688 3.41406C7.71354 3.69531 6.94792 4.09115 6.25 4.60156C5.55729 5.11198 4.95573 5.71615 4.44531 6.41406C3.9349 7.10677 3.53906 7.8724 3.25781 8.71094C2.97656 9.54948 2.83594 10.4323 2.83594 11.3594C2.83594 12.2865 2.97656 13.1693 3.25781 14.0078C3.53906 14.8411 3.9349 15.6068 4.44531 16.3047C4.96094 17.0026 5.5651 17.6068 6.25781 18.1172C6.95573 18.6276 7.72135 19.0234 8.55469 19.3047C9.39323 19.5911 10.276 19.7344 11.2031 19.7344ZM6.57812 11.3594C6.57812 11.0885 6.66146 10.8672 6.82812 10.6953C7 10.5234 7.21875 10.4375 7.48438 10.4375H10.2891V7.64062C10.2891 7.375 10.3724 7.15625 10.5391 6.98438C10.7109 6.8125 10.9271 6.72656 11.1875 6.72656C11.4531 6.72656 11.6719 6.8125 11.8438 6.98438C12.0156 7.15625 12.1016 7.375 12.1016 7.64062V10.4375H14.9141C15.1745 10.4375 15.388 10.5234 15.5547 10.6953C15.7266 10.8672 15.8125 11.0885 15.8125 11.3594C15.8125 11.6146 15.7266 11.8281 15.5547 12C15.388 12.1667 15.1745 12.25 14.9141 12.25H12.1016V15.0625C12.1016 15.3281 12.0156 15.5469 11.8438 15.7188C11.6719 15.8854 11.4531 15.9688 11.1875 15.9688C10.9271 15.9688 10.7109 15.8828 10.5391 15.7109C10.3724 15.5391 10.2891 15.3229 10.2891 15.0625V12.25H7.48438C7.22396 12.25 7.00781 12.1667 6.83594 12C6.66406 11.8281 6.57812 11.6146 6.57812 11.3594Z" fill="white"/>
</svg>
