<svg width="16" height="16" viewBox="0 0 16 16" fill="none" xmlns="http://www.w3.org/2000/svg">
<path d="M2.93066 15.8428C1.09619 15.8428 0.116699 14.8799 0.116699 13.062V2.97656C0.116699 1.15869 1.09619 0.1875 2.93066 0.1875H12.958C14.8008 0.1875 15.772 1.15869 15.772 2.97656V13.062C15.772 14.8799 14.8008 15.8428 12.958 15.8428H2.93066ZM10.6836 10.3643C11.1484 10.3643 11.4473 10.0156 11.4473 9.50098V5.5083C11.4473 4.84424 11.0737 4.52051 10.4512 4.52051H6.44189C5.91895 4.52051 5.58691 4.82764 5.58691 5.30078C5.58691 5.77393 5.92725 6.07275 6.4502 6.07275H7.81152L8.92383 5.93994L7.68701 7.05225L4.78174 9.95752C4.60742 10.1318 4.50781 10.3643 4.50781 10.5884C4.50781 11.103 4.87305 11.4434 5.35449 11.4434C5.62012 11.4434 5.83594 11.3521 6.01855 11.1694L8.91553 8.27246L10.0195 7.05225L9.90332 8.22266V9.50928C9.90332 10.0322 10.2021 10.3643 10.6836 10.3643Z" fill="#AFF41C"/>
</svg>
