<svg width="183" height="217" viewBox="0 0 183 217" fill="none" xmlns="http://www.w3.org/2000/svg">
<path d="M179.5 19.2972V19.3626L179.456 19.3196L179.5 19.2972Z" fill="#E12424"/>
<path d="M179.5 56.127V124.377L157.974 136.792L153.939 139.09L94.2117 173.578L109.979 133.789L157.974 106.075V68.6816L91.4997 107.055L51.9316 84.2118V114.712L30.406 102.885V41.1132L91.4997 76.3817L160.132 36.7595L179.5 56.127Z" fill="#0136C0"/>
<path d="M179.5 19.3618V49.8468L160.17 30.517L91.4998 70.1661L25.0253 31.7928V106.081L73.0259 133.789V133.794L88.7926 173.583L25.0253 136.765V136.813L3.49976 124.383V19.3675L22.8673 0L91.4998 39.6221L160.138 0L179.456 19.3192L179.5 19.3618Z" fill="#004FE8"/>
<path d="M94.2118 173.578L94.2061 173.589V173.578H94.2118Z" fill="#5D5D5D"/>
<g opacity="0.5">
<path d="M45.05 77.1034L47.2236 78.3555V106.759L45.05 105.563V77.1034Z" fill="white"/>
<path d="M35.1118 49.2649L91.3059 81.7058L89.3206 82.854L35.1118 51.5522V49.2649Z" fill="white"/>
<path d="M174.793 58.0738V121.656L172.619 122.908V59.1189L157.326 43.8162L159.359 42.6394L174.793 58.0738Z" fill="white"/>
<path d="M69.2557 137.044L79.4386 162.746L76.0792 160.807L67.0723 138.079L18.1428 109.836V24.6829L20.3172 25.935V108.801L69.2557 137.044Z" fill="white"/>
<path d="M91.3058 44.9456L89.3204 46.0938L22.1807 7.33829L23.6398 5.87915L91.3058 44.9456Z" fill="white"/>
<path d="M174.793 21.3136V38.4895L172.619 36.3151V22.3488L157.317 7.05595L159.359 5.87915L174.793 21.3136Z" fill="white"/>
</g>
<path d="M10.45 210.839C9.11667 210.839 7.875 210.622 6.725 210.189C5.59167 209.739 4.6 209.114 3.75 208.314C2.91667 207.497 2.26667 206.539 1.8 205.439C1.33333 204.339 1.1 203.139 1.1 201.839C1.1 200.539 1.33333 199.339 1.8 198.239C2.26667 197.139 2.925 196.189 3.775 195.389C4.625 194.572 5.61667 193.947 6.75 193.514C7.88333 193.064 9.125 192.839 10.475 192.839C11.9083 192.839 13.2167 193.089 14.4 193.589C15.5833 194.072 16.5833 194.797 17.4 195.764L15.3 197.739C14.6667 197.056 13.9583 196.547 13.175 196.214C12.3917 195.864 11.5417 195.689 10.625 195.689C9.70833 195.689 8.86667 195.839 8.1 196.139C7.35 196.439 6.69167 196.864 6.125 197.414C5.575 197.964 5.14167 198.614 4.825 199.364C4.525 200.114 4.375 200.939 4.375 201.839C4.375 202.739 4.525 203.564 4.825 204.314C5.14167 205.064 5.575 205.714 6.125 206.264C6.69167 206.814 7.35 207.239 8.1 207.539C8.86667 207.839 9.70833 207.989 10.625 207.989C11.5417 207.989 12.3917 207.822 13.175 207.489C13.9583 207.139 14.6667 206.614 15.3 205.914L17.4 207.914C16.5833 208.864 15.5833 209.589 14.4 210.089C13.2167 210.589 11.9 210.839 10.45 210.839ZM28.317 210.589V207.889L28.142 207.314V202.589C28.142 201.672 27.867 200.964 27.317 200.464C26.767 199.947 25.9337 199.689 24.817 199.689C24.067 199.689 23.3253 199.806 22.592 200.039C21.8753 200.272 21.267 200.597 20.767 201.014L19.542 198.739C20.2587 198.189 21.1087 197.781 22.092 197.514C23.092 197.231 24.1253 197.089 25.192 197.089C27.1253 197.089 28.617 197.556 29.667 198.489C30.7337 199.406 31.267 200.831 31.267 202.764V210.589H28.317ZM24.117 210.764C23.117 210.764 22.242 210.597 21.492 210.264C20.742 209.914 20.1587 209.439 19.742 208.839C19.342 208.222 19.142 207.531 19.142 206.764C19.142 206.014 19.317 205.339 19.667 204.739C20.0337 204.139 20.6253 203.664 21.442 203.314C22.2587 202.964 23.342 202.789 24.692 202.789H28.567V204.864H24.917C23.8503 204.864 23.1337 205.039 22.767 205.389C22.4003 205.722 22.217 206.139 22.217 206.639C22.217 207.206 22.442 207.656 22.892 207.989C23.342 208.322 23.967 208.489 24.767 208.489C25.5337 208.489 26.217 208.314 26.817 207.964C27.4337 207.614 27.8753 207.097 28.142 206.414L28.667 208.289C28.367 209.072 27.8253 209.681 27.042 210.114C26.2753 210.547 25.3003 210.764 24.117 210.764ZM35.2775 210.589V197.239H38.2525V200.914L37.9025 199.839C38.3025 198.939 38.9275 198.256 39.7775 197.789C40.6442 197.322 41.7192 197.089 43.0025 197.089V200.064C42.8692 200.031 42.7442 200.014 42.6275 200.014C42.5109 199.997 42.3942 199.989 42.2775 199.989C41.0942 199.989 40.1525 200.339 39.4525 201.039C38.7525 201.722 38.4025 202.747 38.4025 204.114V210.589H35.2775ZM51.1814 210.764C49.8981 210.764 48.7398 210.481 47.7064 209.914C46.6898 209.331 45.8898 208.531 45.3064 207.514C44.7231 206.497 44.4314 205.297 44.4314 203.914C44.4314 202.531 44.7231 201.331 45.3064 200.314C45.8898 199.297 46.6898 198.506 47.7064 197.939C48.7398 197.372 49.8981 197.089 51.1814 197.089C52.2981 197.089 53.2981 197.339 54.1814 197.839C55.0648 198.322 55.7648 199.064 56.2814 200.064C56.7981 201.064 57.0564 202.347 57.0564 203.914C57.0564 205.464 56.8064 206.747 56.3064 207.764C55.8064 208.764 55.1148 209.514 54.2314 210.014C53.3481 210.514 52.3314 210.764 51.1814 210.764ZM51.5564 208.089C52.3064 208.089 52.9731 207.922 53.5564 207.589C54.1564 207.256 54.6314 206.772 54.9814 206.139C55.3481 205.506 55.5314 204.764 55.5314 203.914C55.5314 203.047 55.3481 202.306 54.9814 201.689C54.6314 201.056 54.1564 200.572 53.5564 200.239C52.9731 199.906 52.3064 199.739 51.5564 199.739C50.8064 199.739 50.1314 199.906 49.5314 200.239C48.9481 200.572 48.4731 201.056 48.1064 201.689C47.7564 202.306 47.5814 203.047 47.5814 203.914C47.5814 204.764 47.7564 205.506 48.1064 206.139C48.4731 206.772 48.9481 207.256 49.5314 207.589C50.1314 207.922 50.8064 208.089 51.5564 208.089ZM55.6064 210.589V207.439L55.7314 203.889L55.4814 200.339V192.039H58.5814V210.589H55.6064ZM69.9037 210.589V193.089H72.5787L80.2287 205.864H78.8287L86.3537 193.089H89.0287L89.0537 210.589H85.9787L85.9537 197.914H86.6037L80.2037 208.589H78.7537L72.2537 197.914H73.0037V210.589H69.9037ZM101.706 210.589V207.889L101.531 207.314V202.589C101.531 201.672 101.256 200.964 100.706 200.464C100.156 199.947 99.3223 199.689 98.2057 199.689C97.4557 199.689 96.714 199.806 95.9807 200.039C95.264 200.272 94.6557 200.597 94.1557 201.014L92.9307 198.739C93.6473 198.189 94.4973 197.781 95.4807 197.514C96.4807 197.231 97.514 197.089 98.5807 197.089C100.514 197.089 102.006 197.556 103.056 198.489C104.122 199.406 104.656 200.831 104.656 202.764V210.589H101.706ZM97.5057 210.764C96.5057 210.764 95.6307 210.597 94.8807 210.264C94.1307 209.914 93.5473 209.439 93.1307 208.839C92.7307 208.222 92.5307 207.531 92.5307 206.764C92.5307 206.014 92.7057 205.339 93.0557 204.739C93.4223 204.139 94.014 203.664 94.8307 203.314C95.6473 202.964 96.7307 202.789 98.0807 202.789H101.956V204.864H98.3057C97.239 204.864 96.5223 205.039 96.1557 205.389C95.789 205.722 95.6057 206.139 95.6057 206.639C95.6057 207.206 95.8307 207.656 96.2807 207.989C96.7307 208.322 97.3557 208.489 98.1557 208.489C98.9223 208.489 99.6057 208.314 100.206 207.964C100.822 207.614 101.264 207.097 101.531 206.414L102.056 208.289C101.756 209.072 101.214 209.681 100.431 210.114C99.664 210.547 98.689 210.764 97.5057 210.764ZM116.241 197.089C117.308 197.089 118.258 197.297 119.091 197.714C119.941 198.131 120.608 198.772 121.091 199.639C121.575 200.489 121.816 201.589 121.816 202.939V210.589H118.691V203.339C118.691 202.156 118.408 201.272 117.841 200.689C117.291 200.106 116.516 199.814 115.516 199.814C114.783 199.814 114.133 199.964 113.566 200.264C113 200.564 112.558 201.014 112.241 201.614C111.941 202.197 111.791 202.939 111.791 203.839V210.589H108.666V197.239H111.641V200.839L111.116 199.739C111.583 198.889 112.258 198.239 113.141 197.789C114.041 197.322 115.075 197.089 116.241 197.089ZM134.005 210.589V207.889L133.83 207.314V202.589C133.83 201.672 133.555 200.964 133.005 200.464C132.455 199.947 131.622 199.689 130.505 199.689C129.755 199.689 129.014 199.806 128.28 200.039C127.564 200.272 126.955 200.597 126.455 201.014L125.23 198.739C125.947 198.189 126.797 197.781 127.78 197.514C128.78 197.231 129.814 197.089 130.88 197.089C132.814 197.089 134.305 197.556 135.355 198.489C136.422 199.406 136.955 200.831 136.955 202.764V210.589H134.005ZM129.805 210.764C128.805 210.764 127.93 210.597 127.18 210.264C126.43 209.914 125.847 209.439 125.43 208.839C125.03 208.222 124.83 207.531 124.83 206.764C124.83 206.014 125.005 205.339 125.355 204.739C125.722 204.139 126.314 203.664 127.13 203.314C127.947 202.964 129.03 202.789 130.38 202.789H134.255V204.864H130.605C129.539 204.864 128.822 205.039 128.455 205.389C128.089 205.722 127.905 206.139 127.905 206.639C127.905 207.206 128.13 207.656 128.58 207.989C129.03 208.322 129.655 208.489 130.455 208.489C131.222 208.489 131.905 208.314 132.505 207.964C133.122 207.614 133.564 207.097 133.83 206.414L134.355 208.289C134.055 209.072 133.514 209.681 132.73 210.114C131.964 210.547 130.989 210.764 129.805 210.764ZM147.04 215.614C145.807 215.614 144.599 215.447 143.415 215.114C142.249 214.797 141.29 214.331 140.54 213.714L141.94 211.364C142.524 211.847 143.257 212.231 144.14 212.514C145.04 212.814 145.949 212.964 146.865 212.964C148.332 212.964 149.407 212.622 150.09 211.939C150.774 211.272 151.115 210.264 151.115 208.914V206.539L151.365 203.514L151.265 200.489V197.239H154.24V208.564C154.24 210.981 153.624 212.756 152.39 213.889C151.157 215.039 149.374 215.614 147.04 215.614ZM146.64 209.989C145.374 209.989 144.224 209.722 143.19 209.189C142.174 208.639 141.365 207.881 140.765 206.914C140.182 205.947 139.89 204.814 139.89 203.514C139.89 202.231 140.182 201.106 140.765 200.139C141.365 199.172 142.174 198.422 143.19 197.889C144.224 197.356 145.374 197.089 146.64 197.089C147.774 197.089 148.79 197.314 149.69 197.764C150.59 198.214 151.307 198.914 151.84 199.864C152.39 200.814 152.665 202.031 152.665 203.514C152.665 204.997 152.39 206.222 151.84 207.189C151.307 208.139 150.59 208.847 149.69 209.314C148.79 209.764 147.774 209.989 146.64 209.989ZM147.115 207.339C147.899 207.339 148.599 207.181 149.215 206.864C149.832 206.531 150.307 206.081 150.64 205.514C150.99 204.931 151.165 204.264 151.165 203.514C151.165 202.764 150.99 202.106 150.64 201.539C150.307 200.956 149.832 200.514 149.215 200.214C148.599 199.897 147.899 199.739 147.115 199.739C146.332 199.739 145.624 199.897 144.99 200.214C144.374 200.514 143.89 200.956 143.54 201.539C143.207 202.106 143.04 202.764 143.04 203.514C143.04 204.264 143.207 204.931 143.54 205.514C143.89 206.081 144.374 206.531 144.99 206.864C145.624 207.181 146.332 207.339 147.115 207.339ZM164.624 210.764C163.14 210.764 161.84 210.472 160.724 209.889C159.624 209.289 158.765 208.472 158.149 207.439C157.549 206.406 157.249 205.231 157.249 203.914C157.249 202.581 157.54 201.406 158.124 200.389C158.724 199.356 159.54 198.547 160.574 197.964C161.624 197.381 162.815 197.089 164.149 197.089C165.449 197.089 166.607 197.372 167.624 197.939C168.64 198.506 169.44 199.306 170.024 200.339C170.607 201.372 170.899 202.589 170.899 203.989C170.899 204.122 170.89 204.272 170.874 204.439C170.874 204.606 170.865 204.764 170.849 204.914H159.724V202.839H169.199L167.974 203.489C167.99 202.722 167.832 202.047 167.499 201.464C167.165 200.881 166.707 200.422 166.124 200.089C165.557 199.756 164.899 199.589 164.149 199.589C163.382 199.589 162.707 199.756 162.124 200.089C161.557 200.422 161.107 200.889 160.774 201.489C160.457 202.072 160.299 202.764 160.299 203.564V204.064C160.299 204.864 160.482 205.572 160.849 206.189C161.215 206.806 161.732 207.281 162.399 207.614C163.065 207.947 163.832 208.114 164.699 208.114C165.449 208.114 166.124 207.997 166.724 207.764C167.324 207.531 167.857 207.164 168.324 206.664L169.999 208.589C169.399 209.289 168.64 209.831 167.724 210.214C166.824 210.581 165.79 210.764 164.624 210.764ZM173.901 210.589V197.239H176.876V200.914L176.526 199.839C176.926 198.939 177.551 198.256 178.401 197.789C179.267 197.322 180.342 197.089 181.626 197.089V200.064C181.492 200.031 181.367 200.014 181.251 200.014C181.134 199.997 181.017 199.989 180.901 199.989C179.717 199.989 178.776 200.339 178.076 201.039C177.376 201.722 177.026 202.747 177.026 204.114V210.589H173.901Z" fill="white"/>
</svg>
