<svg width="32" height="32" viewBox="0 0 32 32" fill="none" xmlns="http://www.w3.org/2000/svg">
<path d="M9.8125 27.6416C8.65234 27.6416 7.77507 27.348 7.18066 26.7607C6.58626 26.1735 6.28906 25.3034 6.28906 24.1504V13.8486C6.28906 12.7028 6.58626 11.8363 7.18066 11.249C7.77507 10.6546 8.65234 10.3574 9.8125 10.3574H14.7646V18.1777C14.7646 18.5143 14.8864 18.8008 15.1299 19.0371C15.3734 19.2734 15.6634 19.3916 16 19.3916C16.3438 19.3916 16.6374 19.2734 16.8809 19.0371C17.1315 18.8008 17.2568 18.5143 17.2568 18.1777V10.3574H22.1875C23.3477 10.3574 24.2249 10.6546 24.8193 11.249C25.4137 11.8434 25.7109 12.71 25.7109 13.8486V24.1504C25.7109 25.2962 25.4137 26.1628 24.8193 26.75C24.2249 27.3444 23.3477 27.6416 22.1875 27.6416H9.8125ZM16 11.4639C15.7279 11.4639 15.4951 11.3672 15.3018 11.1738C15.1084 10.9805 15.0117 10.7513 15.0117 10.4863V7.28516L15.0977 5.68457L14.4209 6.46875L12.917 8.08008C12.7451 8.27344 12.5231 8.37012 12.251 8.37012C12.0003 8.37012 11.7891 8.29134 11.6172 8.13379C11.4525 7.96908 11.3701 7.76139 11.3701 7.51074C11.3701 7.28158 11.4596 7.07031 11.6387 6.87695L15.248 3.40723C15.3841 3.27832 15.5094 3.1888 15.624 3.13867C15.7458 3.08854 15.8711 3.06348 16 3.06348C16.1361 3.06348 16.265 3.08854 16.3867 3.13867C16.5085 3.1888 16.6338 3.27832 16.7627 3.40723L20.3613 6.87695C20.5547 7.07031 20.6514 7.28158 20.6514 7.51074C20.6514 7.76139 20.5618 7.96908 20.3828 8.13379C20.2109 8.29134 20.0033 8.37012 19.7598 8.37012C19.4948 8.37012 19.2728 8.27344 19.0938 8.08008L17.5898 6.46875L16.9238 5.68457L17.0098 7.28516V10.4863C17.0098 10.7513 16.9095 10.9805 16.709 11.1738C16.5156 11.3672 16.2793 11.4639 16 11.4639Z" fill="white"/>
</svg>
