<svg width="21" height="20" viewBox="0 0 21 20" fill="none" xmlns="http://www.w3.org/2000/svg">
<path d="M4.59863 19.6914C4.39811 19.5365 4.27507 19.3337 4.22949 19.083C4.18848 18.8369 4.22493 18.5452 4.33887 18.208L6.15723 12.7871L1.50879 9.45117C1.22168 9.24609 1.01888 9.02962 0.900391 8.80176C0.786458 8.57389 0.770508 8.33691 0.852539 8.09082C0.930013 7.85384 1.0804 7.67611 1.30371 7.55762C1.53158 7.43913 1.82324 7.38216 2.17871 7.38672L7.88672 7.4209L9.62305 1.97266C9.73242 1.63086 9.87598 1.37109 10.0537 1.19336C10.236 1.01562 10.4548 0.926758 10.71 0.926758C10.9652 0.926758 11.1816 1.01562 11.3594 1.19336C11.5371 1.37109 11.6807 1.63086 11.79 1.97266L13.5264 7.4209L19.2275 7.38672C19.5876 7.38216 19.8792 7.43913 20.1025 7.55762C20.3258 7.67611 20.4785 7.85612 20.5605 8.09766C20.6426 8.33919 20.6266 8.57389 20.5127 8.80176C20.3988 9.02962 20.196 9.24609 19.9043 9.45117L15.2559 12.7871L17.0742 18.208C17.1882 18.5452 17.2223 18.8369 17.1768 19.083C17.1357 19.3337 17.015 19.5365 16.8145 19.6914C16.6094 19.8418 16.3792 19.8965 16.124 19.8555C15.8734 19.819 15.6022 19.6937 15.3105 19.4795L10.71 16.0957L6.0957 19.4795C5.80404 19.6937 5.53288 19.819 5.28223 19.8555C5.03158 19.8965 4.80371 19.8418 4.59863 19.6914Z" fill="#FFD53F"/>
</svg>
