<svg width="32" height="32" viewBox="0 0 32 32" fill="none" xmlns="http://www.w3.org/2000/svg">
<path d="M8.54492 26.7715C8.29427 26.5853 8.1403 26.3346 8.08301 26.0195C8.03288 25.7116 8.07943 25.3464 8.22266 24.9238L10.4355 18.3604L4.7959 14.3105C4.43066 14.0527 4.17643 13.7842 4.0332 13.5049C3.88997 13.2184 3.86849 12.9248 3.96875 12.624C4.06901 12.3304 4.25879 12.112 4.53809 11.9688C4.81738 11.8184 5.18262 11.7467 5.63379 11.7539L12.541 11.7969L14.6465 5.20117C14.7826 4.77148 14.9616 4.44564 15.1836 4.22363C15.4128 3.99447 15.6813 3.87988 15.9893 3.87988C16.3044 3.87988 16.5729 3.99447 16.7949 4.22363C17.0241 4.44564 17.2067 4.77148 17.3428 5.20117L19.4482 11.7969L26.3555 11.7539C26.8066 11.7467 27.1719 11.8184 27.4512 11.9688C27.7305 12.112 27.9202 12.3304 28.0205 12.624C28.1208 12.9248 28.0993 13.2184 27.9561 13.5049C27.8128 13.7842 27.5586 14.0527 27.1934 14.3105L21.5537 18.3604L23.7666 24.9238C23.9098 25.3464 23.9528 25.7116 23.8955 26.0195C23.8454 26.3346 23.695 26.5853 23.4443 26.7715C23.1937 26.972 22.9108 27.0436 22.5957 26.9863C22.2806 26.929 21.944 26.7715 21.5859 26.5137L15.9893 22.3994L10.4033 26.5137C10.0452 26.7715 9.70866 26.929 9.39355 26.9863C9.07845 27.0436 8.79557 26.972 8.54492 26.7715Z" fill="white"/>
</svg>
